<?xml version="1.0" encoding="UTF-8"?><svg id="Capa_1" xmlns="http://www.w3.org/2000/svg" width="192.74" height="54.96" viewBox="0 0 192.74 54.96"><defs><style>.cls-1{fill:#ececed;}.cls-2{fill:#1e1b3b;stroke:#343434;stroke-miterlimit:10;stroke-width:.12px;}.cls-3{fill:#343434;}</style></defs><rect class="cls-3" x="5.79" y="6.06" width="44.02" height="42.69" rx="3.24" ry="3.24"/><path class="cls-1" d="M41.62,39.59v-19.83c0-4.09-3.21-7.43-7.25-7.62h-.85c-.06,0-.11,0-.16.01-.98.07-1.9.33-2.74.76-2.29,1.11-3.94,3.34-4.23,5.99v.92h5.6c.76,0,1.37.61,1.37,1.36v18.42c0,1.48-1.2,2.68-2.68,2.71h-.06v.33h13.75v-.3c-1.52,0-2.75-1.23-2.75-2.75Z"/><path class="cls-1" d="M14.09,17.03l-2.75,1.22v1.6h1.41c.74,0,1.34.6,1.34,1.34v18.41c0,1.52-1.23,2.75-2.75,2.75v.3h13.76v-.34h-.04c-1.5-.02-2.71-1.22-2.71-2.71v-18.37c0-.76.62-1.38,1.38-1.38h1.37v-7.7l-2.75,1.22-8.26,3.66Z"/><path class="cls-2" d="M63.84,21.18v.11h-.01s.01-.07.01-.11Z"/><polygon class="cls-3" points="70.74 26.01 60.18 12.16 58.11 12.16 58.11 30.4 60.62 30.4 60.62 16.49 71.2 30.4 73.25 30.4 73.25 12.16 70.74 12.16 70.74 26.01"/><path class="cls-3" d="M86.71,19.69c-.31-.69-.79-1.27-1.45-1.71-.85-.57-1.84-.85-2.98-.85s-2.17.27-3.03.82c-.86.54-1.53,1.32-2.01,2.32s-.71,2.21-.71,3.62.24,2.61.71,3.62c.47,1.02,1.14,1.79,2.01,2.33s1.87.8,3.03.8,2.08-.28,2.94-.84c.63-.41,1.1-.93,1.41-1.56v2.17h2.61v-9.91c0-.5.02-1.01.06-1.54.04-.53.09-1.06.14-1.59h-2.54l-.2,2.33ZM85.64,27.4c-.68.79-1.58,1.19-2.71,1.19s-2.07-.4-2.74-1.19c-.67-.79-1.01-1.97-1.01-3.52s.34-2.72,1.02-3.51,1.59-1.18,2.73-1.18,2.02.39,2.71,1.18c.68.79,1.02,1.95,1.02,3.51s-.34,2.73-1.02,3.52Z"/><path class="cls-3" d="M99.52,17.13c-.66,0-1.28.13-1.88.39-.6.26-1.1.66-1.51,1.19-.22.28-.4.62-.55.98l-.2-2.33h-2.54c.05.54.09,1.07.12,1.62.03.54.04,1.08.04,1.62v9.81h2.64v-7.35c0-.66.14-1.27.41-1.84s.68-1.02,1.22-1.36c.53-.34,1.18-.5,1.94-.5.31,0,.57.01.79.04.22.03.47.1.76.22l.03-2.33c-.19-.05-.38-.09-.57-.12-.19-.03-.42-.04-.7-.04Z"/><polygon class="cls-3" points="108.65 27.33 104.62 17.36 101.82 17.36 107.41 30.4 109.8 30.4 115.41 17.36 112.75 17.36 108.65 27.33"/><path class="cls-3" d="M126.65,19.69c-.31-.69-.79-1.27-1.45-1.71-.85-.57-1.84-.85-2.98-.85s-2.17.27-3.03.82c-.86.54-1.53,1.32-2.01,2.32s-.71,2.21-.71,3.62.24,2.61.71,3.62c.47,1.02,1.14,1.79,2.01,2.33s1.87.8,3.03.8,2.08-.28,2.94-.84c.63-.41,1.1-.93,1.41-1.56v2.17h2.61v-9.91c0-.5.02-1.01.06-1.54.04-.53.09-1.06.14-1.59h-2.54l-.2,2.33ZM125.57,27.4c-.68.79-1.58,1.19-2.71,1.19s-2.07-.4-2.74-1.19c-.67-.79-1.01-1.97-1.01-3.52s.34-2.72,1.02-3.51,1.59-1.18,2.73-1.18,2.02.39,2.71,1.18c.68.79,1.02,1.95,1.02,3.51s-.34,2.73-1.02,3.52Z"/><path class="cls-3" d="M141.58,17.9c-.83-.52-1.85-.78-3.08-.78s-2.33.28-3.27.84c-.94.56-1.67,1.35-2.2,2.37-.53,1.02-.79,2.21-.79,3.57,0,2.1.6,3.75,1.81,4.94,1.21,1.19,2.86,1.79,4.97,1.79.97,0,1.88-.14,2.74-.43.86-.28,1.6-.69,2.2-1.23l-.85-1.79c-.6.5-1.24.86-1.9,1.07-.66.22-1.38.32-2.14.32-1.38,0-2.45-.39-3.2-1.17-.7-.73-1.06-1.8-1.11-3.18h9.35v-.83c0-1.28-.22-2.38-.65-3.33-.43-.94-1.06-1.67-1.89-2.19ZM135.73,20.25c.66-.84,1.59-1.26,2.8-1.26,1.09,0,1.92.36,2.5,1.07.53.65.8,1.55.85,2.68h-7.07c.12-1.02.42-1.85.93-2.5Z"/><polygon class="cls-3" points="149.3 28.41 157.26 19.09 157.26 17.36 146.37 17.36 146.37 19.38 154.3 19.38 146.37 28.67 146.37 30.4 157.55 30.4 157.55 28.41 149.3 28.41"/><path class="cls-3" d="M63.87,34c-.72-.36-1.6-.54-2.63-.54h-3.16v9.31h3.16c1.04,0,1.92-.18,2.63-.54.72-.36,1.26-.89,1.63-1.58.37-.7.55-1.54.55-2.54s-.18-1.84-.55-2.53c-.37-.69-.91-1.22-1.63-1.58ZM63.91,40.82c-.6.6-1.52.9-2.76.9h-1.84v-7.22h1.84c1.24,0,2.16.3,2.76.89.6.59.9,1.5.9,2.71s-.3,2.12-.9,2.72Z"/><rect class="cls-3" x="67.99" y="33.46" width="1.23" height="9.31"/><path class="cls-3" d="M75.6,38.8h2.34v2.61c-.29.1-.58.21-.88.27-.4.08-.8.12-1.21.12-1.17,0-2.03-.31-2.59-.94-.55-.62-.83-1.54-.83-2.73s.29-2.09.86-2.73c.57-.64,1.4-.96,2.48-.96.39,0,.72.03,1.01.1.29.07.56.17.82.32.26.15.54.35.82.59l.46-.98c-.4-.37-.84-.65-1.35-.84-.5-.19-1.09-.29-1.77-.29-.97,0-1.8.19-2.49.58-.69.39-1.22.94-1.59,1.65-.37.71-.55,1.56-.55,2.55s.17,1.84.52,2.55.87,1.26,1.56,1.64c.7.38,1.55.57,2.57.57.58,0,1.16-.06,1.74-.18.58-.12,1.07-.29,1.47-.49v-4.36h-3.39v.95Z"/><rect class="cls-3" x="81.15" y="33.46" width="1.23" height="9.31"/><polygon class="cls-3" points="91.34 33.46 83.65 33.46 83.65 34.5 86.87 34.5 86.87 42.76 88.11 42.76 88.11 34.5 91.34 34.5 91.34 33.46"/><path class="cls-3" d="M94.8,33.46l-4.12,9.31h1.25l1.01-2.32h4.83l1.01,2.32h1.27l-4.19-9.31h-1.07ZM93.37,39.44l1.94-4.61h.05l1.99,4.61h-3.99Z"/><polygon class="cls-3" points="102.61 33.46 101.38 33.46 101.38 42.76 107.24 42.76 107.24 41.71 102.61 41.71 102.61 33.46"/><polygon class="cls-3" points="116.67 41.27 113.2 33.46 112.11 33.46 112.11 42.76 113.24 42.76 113.24 36 116.27 42.76 117.05 42.76 120.09 36 120.09 42.76 121.21 42.76 121.21 33.46 120.14 33.46 116.67 41.27"/><path class="cls-3" d="M126.65,33.46l-4.12,9.31h1.25l1.01-2.32h4.83l1.01,2.32h1.27l-4.19-9.31h-1.07ZM125.22,39.44l1.94-4.61h.05l1.99,4.61h-3.99Z"/><path class="cls-3" d="M138.74,38.8c-.16-.1-.33-.17-.52-.21.2-.05.39-.1.56-.18.44-.2.79-.5,1.04-.88.25-.39.37-.86.37-1.41,0-.84-.27-1.49-.81-1.95-.54-.47-1.31-.7-2.3-.7h-3.86v9.31h1.23v-3.97h1.94c.43,0,.79.06,1.08.17.29.11.5.36.65.74l1.28,3.06h1.36l-1.32-3.09c-.18-.4-.42-.7-.7-.88ZM136.9,37.84h-2.44v-3.38h2.44c.68,0,1.19.14,1.55.43.36.29.53.7.53,1.25s-.18.98-.53,1.27c-.36.29-.87.44-1.55.44Z"/><polygon class="cls-3" points="149.57 33.46 148.03 33.46 143.66 37.67 143.63 37.67 143.63 33.46 142.4 33.46 142.4 42.76 143.63 42.76 143.63 38.39 143.66 38.39 148.33 42.76 149.93 42.76 144.82 37.97 149.57 33.46"/><polygon class="cls-3" points="150.87 42.76 156.89 42.76 156.89 41.76 152.05 41.76 152.05 38.54 156.58 38.54 156.58 37.54 152.05 37.54 152.05 34.46 156.89 34.46 156.89 33.46 150.87 33.46 150.87 42.76"/><polygon class="cls-3" points="157.52 34.5 160.74 34.5 160.74 42.76 161.98 42.76 161.98 34.5 165.22 34.5 165.22 33.46 157.52 33.46 157.52 34.5"/><rect class="cls-3" x="166.53" y="33.46" width="1.23" height="9.31"/><polygon class="cls-3" points="176.48 40.75 170.96 33.46 170.01 33.46 170.01 42.76 171.16 42.76 171.16 35.45 176.69 42.76 177.63 42.76 177.63 33.46 176.48 33.46 176.48 40.75"/><path class="cls-3" d="M184.02,37.85v.95h2.34v2.61c-.29.1-.58.21-.88.27-.4.08-.8.12-1.21.12-1.17,0-2.03-.31-2.59-.94-.55-.62-.83-1.54-.83-2.73s.29-2.09.86-2.73c.57-.64,1.4-.96,2.48-.96.39,0,.72.03,1.01.1.29.07.56.17.82.32.26.15.54.35.82.59l.46-.98c-.4-.37-.84-.65-1.35-.84-.5-.19-1.09-.29-1.77-.29-.97,0-1.8.19-2.49.58-.69.39-1.22.94-1.59,1.65-.37.71-.55,1.56-.55,2.55s.17,1.84.52,2.55.87,1.26,1.56,1.64c.7.38,1.55.57,2.57.57.58,0,1.16-.06,1.74-.18.58-.12,1.07-.29,1.47-.49v-4.36h-3.39Z"/></svg>